{
  "accessors": [
    {
      "bufferView": 2,
      "componentType": 5126,
      "count": 6833,
      "max": [
        1.0737158060073853,
        1.0116552114486694,
        0.6175605654716492
      ],
      "min": [
        -1.0737156867980957,
        -1.2080711126327515,
        -0.09244354814291
      ],
      "type": "VEC3"
    },
    {
      "bufferView": 2,
      "byteOffset": 81996,
      "componentType": 5126,
      "count": 6833,
      "max": [
        0.9999653100967407,
        0.9998819828033447,
        0.9999668598175049
      ],
      "min": [
        -0.9999653100967407,
        -0.9987574219703674,
        -0.9999600648880005
      ],
      "type": "VEC3"
    },
    {
      "bufferView": 3,
      "componentType": 5126,
      "count": 6833,
      "max": [
        1.0,
        0.9999969601631165,
        0.9999210238456726,
        1.0
      ],
      "min": [
        -1.0,
        -0.9999895691871643,
        -0.9991342425346375,
        -1.0
      ],
      "type": "VEC4"
    },
    {
      "bufferView": 1,
      "componentType": 5126,
      "count": 6833,
      "max": [
        0.999554455280304,
        0.967664361000061
      ],
      "min": [
        0.0004454726877156645,
        0.0004454726877156645
      ],
      "type": "VEC2"
    },
    {
      "bufferView": 1,
      "byteOffset": 54664,
      "componentType": 5126,
      "count": 6833,
      "max": [
        0.9287564158439636,
        0.9534755945205688
      ],
      "min": [
        -0.009975888766348362,
        -2.0181884765625
      ],
      "type": "VEC2"
    },
    {
      "bufferView": 1,
      "byteOffset": 109328,
      "componentType": 5126,
      "count": 6833,
      "max": [
        1.0616387128829956,
        0.9621772170066833
      ],
      "min": [
        0.003565418068319559,
        -0.9557713270187378
      ],
      "type": "VEC2"
    },
    {
      "bufferView": 1,
      "byteOffset": 163992,
      "componentType": 5126,
      "count": 6833,
      "max": [
        1.5889127254486084,
        0.5967381596565247
      ],
      "min": [
        -0.009975888766348362,
        -2.0181884765625
      ],
      "type": "VEC2"
    },
    {
      "bufferView": 1,
      "byteOffset": 218656,
      "componentType": 5126,
      "count": 6833,
      "max": [
        0.9287564158439636,
        0.9534755945205688
      ],
      "min": [
        -0.009975888766348362,
        -2.0181884765625
      ],
      "type": "VEC2"
    },
    {
      "bufferView": 0,
      "componentType": 5125,
      "count": 22476,
      "type": "SCALAR"
    }
  ],
  "asset": {
    "extras": {
      "author": "Antonio Rossini (https://sketchfab.com/Rox3d)",
      "license": "CC-BY-4.0 (http://creativecommons.org/licenses/by/4.0/)",
      "source": "https://sketchfab.com/3d-models/sea-turtle-b513759c230c4595aee10e660635ed12",
      "title": "Sea Turtle"
    },
    "generator": "Sketchfab-15.19.0",
    "version": "2.0"
  },
  "bufferViews": [
    {
      "buffer": 0,
      "byteLength": 89904,
      "name": "floatBufferViews",
      "target": 34963
    },
    {
      "buffer": 0,
      "byteLength": 273320,
      "byteOffset": 89904,
      "byteStride": 8,
      "name": "floatBufferViews",
      "target": 34962
    },
    {
      "buffer": 0,
      "byteLength": 163992,
      "byteOffset": 363224,
      "byteStride": 12,
      "name": "floatBufferViews",
      "target": 34962
    },
    {
      "buffer": 0,
      "byteLength": 109328,
      "byteOffset": 527216,
      "byteStride": 16,
      "name": "floatBufferViews",
      "target": 34962
    }
  ],
  "buffers": [
    {
      "byteLength": 636544,
      "uri": "scene.bin"
    }
  ],
  "images": [
    {
      "uri": "textures/Material_baseColor.png"
    },
    {
      "uri": "textures/Material_normal.png"
    }
  ],
  "materials": [
    {
      "doubleSided": true,
      "name": "Material",
      "normalTexture": {
        "index": 1,
        "scale": 0.08970989563992263
      },
      "pbrMetallicRoughness": {
        "baseColorTexture": {
          "index": 0
        },
        "metallicFactor": 0.0,
        "roughnessFactor": 0.5
      }
    }
  ],
  "meshes": [
    {
      "name": "Plane.001_Material_0",
      "primitives": [
        {
          "attributes": {
            "NORMAL": 1,
            "POSITION": 0,
            "TANGENT": 2,
            "TEXCOORD_0": 3,
            "TEXCOORD_1": 4,
            "TEXCOORD_2": 5,
            "TEXCOORD_3": 6,
            "TEXCOORD_4": 7
          },
          "indices": 8,
          "material": 0,
          "mode": 4
        }
      ]
    }
  ],
  "nodes": [
    {
      "children": [
        1
      ],
      "matrix": [
        1.0,
        0.0,
        0.0,
        0.0,
        0.0,
        2.220446049250313e-16,
        -1.0,
        0.0,
        0.0,
        1.0,
        2.220446049250313e-16,
        0.0,
        0.0,
        0.0,
        0.0,
        1.0
      ],
      "name": "Sketchfab_model"
    },
    {
      "children": [
        2
      ],
      "matrix": [
        1.0,
        0.0,
        0.0,
        0.0,
        0.0,
        0.0,
        1.0,
        0.0,
        0.0,
        -1.0,
        0.0,
        0.0,
        0.0,
        0.0,
        0.0,
        1.0
      ],
      "name": "ca831df7bc7e4b17bc9463d4e0b4288a.fbx"
    },
    {
      "children": [
        3
      ],
      "name": "RootNode"
    },
    {
      "children": [
        4
      ],
      "matrix": [
        100.0,
        0.0,
        0.0,
        0.0,
        0.0,
        -1.629206793918314e-05,
        -99.99999999999868,
        0.0,
        0.0,
        99.99999999999868,
        -1.629206793918314e-05,
        0.0,
        0.0,
        0.0,
        0.0,
        1.0
      ],
      "name": "Plane.001"
    },
    {
      "mesh": 0,
      "name": "Plane.001_Material_0"
    }
  ],
  "samplers": [
    {
      "magFilter": 9729,
      "minFilter": 9987,
      "wrapS": 10497,
      "wrapT": 10497
    }
  ],
  "scene": 0,
  "scenes": [
    {
      "name": "Sketchfab_Scene",
      "nodes": [
        0
      ]
    }
  ],
  "textures": [
    {
      "sampler": 0,
      "source": 0
    },
    {
      "sampler": 0,
      "source": 1
    }
  ]
}
